# xmcd
#
# Track frame offsets: 
#        150
#        15480
#        28891
#        41627
#        55785
#        70527
#        85641
#        100063
#        116325
#        131020
#        145683
#        160427
#        183065
#        199824
#        214638
#        227839
#        241026
#        256414
#        270212
#        284762
#        297053
#        309764
#        323027
#        335285
#
# Disc length: 4666 seconds
#
# Revision: 2
# Processed by: cddbd v1.5.2PL0 Copyright (c) Steve Scherf et al.
# Submitted via: ExactAudioCopy v0.99pb5
#
DISCID=42123818
DTITLE=Frank Sinatra - All or nothing at all - CD1 Big Band Beginnings
DYEAR=2001
DGENRE=
TTITLE0=From the bottom of my heart
TTITLE1=All or nothing at all
TTITLE2=On a little street in Singapore
TTITLE3=I'll be seeing you
TTITLE4=Fools rush in
TTITLE5=East of the sun (And west of the moon)
TTITLE6=I'll never smile again
TTITLE7=The one I love (Belongs to somebody else)
TTITLE8=Oh! Look at me now
TTITLE9=It's always you
TTITLE10=Everything happens to me
TTITLE11=Let's get away from it all
TTITLE12=This love of mine
TTITLE13=Blue skies
TTITLE14=I think of you
TTITLE15=How about you?
TTITLE16=The song is you
TTITLE17=Night and day
TTITLE18=Just as though you were here
TTITLE19=Street of dreams
TTITLE20=Be careful, it's my heart
TTITLE21=In the blue of the evening
TTITLE22=There are such things
TTITLE23=A lovely way to spend an evening
EXTD=
EXTT0=
EXTT1=
EXTT2=
EXTT3=
EXTT4=
EXTT5=
EXTT6=
EXTT7=
EXTT8=
EXTT9=
EXTT10=
EXTT11=
EXTT12=
EXTT13=
EXTT14=
EXTT15=
EXTT16=
EXTT17=
EXTT18=
EXTT19=
EXTT20=
EXTT21=
EXTT22=
EXTT23=
PLAYORDER=
